<svg width="274" height="78" viewBox="0 0 274 78" fill="none" xmlns="http://www.w3.org/2000/svg">
<rect width="274" height="69" rx="16" fill="#004A69" fill-opacity="0.9"/>
<g filter="url(#filter0_d_1_11)">
<path d="M24.1895 35.639V43H20.3108V24.3711H30.9842V27.6127H24.1895V32.4115H30.5029V35.639H24.1895ZM46.0909 43H43.373L42.6227 41.0607H42.5236C41.863 41.8911 41.1883 42.4668 40.4994 42.7877C39.8105 43.0991 38.9092 43.2548 37.7956 43.2548C36.4178 43.2548 35.3373 42.8632 34.554 42.0799C33.7707 41.2872 33.3791 40.1594 33.3791 38.6967C33.3791 37.2339 33.8981 36.1392 34.9362 35.4125C35.9837 34.6859 37.588 34.2848 39.7491 34.2093L42.2264 34.1385V33.5157C42.2264 32.0718 41.4856 31.3498 40.0039 31.3498C38.8809 31.3498 37.5456 31.6896 35.9979 32.3691L34.7097 29.7503C36.3423 28.8915 38.1401 28.4621 40.103 28.4621C42.0754 28.4621 43.5664 28.8868 44.5762 29.7361C45.586 30.576 46.0909 31.8359 46.0909 33.5157V43ZM42.2264 37.5784V36.4034L40.7259 36.4459C39.584 36.4837 38.7393 36.6913 38.192 37.0688C37.6446 37.4368 37.371 38.003 37.371 38.7674C37.371 39.8622 37.9985 40.4095 39.2537 40.4095C40.1596 40.4095 40.8816 40.1547 41.4195 39.6451C41.9574 39.1261 42.2264 38.4371 42.2264 37.5784ZM55.8672 43.2548C51.4317 43.2548 49.214 40.82 49.214 35.9505C49.214 33.5345 49.8132 31.6896 51.0118 30.4156C52.2197 29.1321 53.9514 28.4904 56.2069 28.4904C57.8301 28.4904 59.307 28.8113 60.6376 29.453L59.491 32.4681C58.0849 31.9019 56.9902 31.6188 56.2069 31.6188C54.1874 31.6188 53.1776 33.0344 53.1776 35.8655C53.1776 38.6967 54.1874 40.1122 56.2069 40.1122C57.613 40.1122 58.9437 39.697 60.1988 38.8665V42.1931C59.5854 42.5895 58.9578 42.8632 58.3161 43.0142C57.6838 43.1746 56.8675 43.2548 55.8672 43.2548ZM76.6539 33.7139V43H72.7611V34.6764C72.7611 32.6286 71.9967 31.6047 70.4679 31.6047C69.3826 31.6047 68.5946 31.9727 68.1039 32.7088C67.6226 33.4449 67.3819 34.6434 67.3819 36.3043V43H63.5033V23.182H67.3819V27.2164C67.3819 27.9336 67.3253 29.0566 67.2121 30.5854H67.4102C68.269 29.1887 69.6468 28.4904 71.5437 28.4904C73.2046 28.4904 74.4692 28.9387 75.3374 29.8352C76.2151 30.7317 76.6539 32.0246 76.6539 33.7139ZM84.5265 28.7594V43H80.6478V28.7594H84.5265ZM82.6013 26.9899C81.1857 26.9899 80.4779 26.3576 80.4779 25.093C80.4779 23.819 81.181 23.182 82.5871 23.182C84.0027 23.182 84.7105 23.8143 84.7105 25.0789C84.7105 25.6923 84.5312 26.1641 84.1726 26.4944C83.814 26.8247 83.2902 26.9899 82.6013 26.9899ZM101.755 33.7139V43H97.8627V34.6764C97.8627 33.6384 97.6786 32.8692 97.3106 32.3691C96.9425 31.8595 96.3622 31.6047 95.5694 31.6047C94.4936 31.6047 93.7103 31.968 93.2196 32.6946C92.7289 33.4119 92.4835 34.6151 92.4835 36.3043V43H88.6048V28.7594H91.5775L92.1013 30.5854H92.3136C92.7383 29.906 93.3281 29.3869 94.0831 29.0283C94.8475 28.6697 95.7157 28.4904 96.6877 28.4904C98.3487 28.4904 99.6085 28.9387 100.467 29.8352C101.326 30.7223 101.755 32.0152 101.755 33.7139ZM124.296 39.7442V43H113.58V24.3711H124.296V27.6127H117.53V31.7037H123.829V34.9312H117.53V39.7442H124.296ZM133.66 43.2548C129.225 43.2548 127.007 40.82 127.007 35.9505C127.007 33.5345 127.606 31.6896 128.805 30.4156C130.013 29.1321 131.744 28.4904 134 28.4904C135.623 28.4904 137.1 28.8113 138.431 29.453L137.284 32.4681C135.878 31.9019 134.783 31.6188 134 31.6188C131.98 31.6188 130.971 33.0344 130.971 35.8655C130.971 38.6967 131.98 40.1122 134 40.1122C135.406 40.1122 136.737 39.697 137.992 38.8665V42.1931C137.378 42.5895 136.751 42.8632 136.109 43.0142C135.477 43.1746 134.66 43.2548 133.66 43.2548ZM149.563 32.6663C149.101 31.968 148.355 31.6188 147.327 31.6188C146.298 31.6188 145.552 31.968 145.09 32.6663C144.628 33.3552 144.396 34.4216 144.396 35.8655C144.396 37.3 144.632 38.3711 145.104 39.0789C145.576 39.7867 146.322 40.1405 147.341 40.1405C148.36 40.1405 149.101 39.7867 149.563 39.0789C150.035 38.3711 150.271 37.3 150.271 35.8655C150.271 34.4216 150.035 33.3552 149.563 32.6663ZM147.369 28.4904C149.436 28.4621 151.106 29.1274 152.38 30.4863C153.654 31.8359 154.272 33.6242 154.235 35.8514C154.235 38.1729 153.621 39.9896 152.394 41.3013C151.177 42.6036 149.478 43.2548 147.298 43.2548C145.232 43.2737 143.561 42.6036 142.287 41.2447C141.023 39.8857 140.404 38.088 140.433 35.8514C140.433 33.5298 141.037 31.7226 142.245 30.4297C143.462 29.1368 145.17 28.4904 147.369 28.4904ZM170.211 35.8514V43H166.318V34.6764C166.318 33.6384 166.143 32.8692 165.794 32.3691C165.445 31.8595 164.907 31.6047 164.18 31.6047C163.189 31.6047 162.468 31.968 162.015 32.6946C161.562 33.4119 161.335 34.6151 161.335 36.3043V43H157.456V28.7594H160.429L160.953 30.5854H161.165C161.543 29.9248 162.09 29.4105 162.807 29.0425C163.534 28.6744 164.364 28.4904 165.299 28.4904C167.441 28.4904 168.885 29.1887 169.63 30.5854H169.984C170.352 29.9154 170.909 29.4011 171.655 29.0425C172.4 28.6744 173.245 28.4904 174.188 28.4904C175.831 28.4904 177.057 28.9103 177.869 29.7503C178.681 30.5902 179.086 31.9114 179.086 33.7139V43H175.193V34.6764C175.193 33.6384 175.019 32.8692 174.67 32.3691C174.321 31.8595 173.783 31.6047 173.056 31.6047C172.093 31.6047 171.376 31.9491 170.904 32.638C170.442 33.3175 170.211 34.3886 170.211 35.8514Z" fill="white"/>
</g>
<g filter="url(#filter1_d_1_11)">
<path d="M191.086 56.75L217.5 11L243.914 56.75H191.086Z" stroke="white" stroke-width="6" shape-rendering="crispEdges"/>
</g>
<g filter="url(#filter2_d_1_11)">
<path d="M206.32 47.9548L217.5 28.5904L228.68 47.9548H206.32Z" stroke="white" stroke-width="6" shape-rendering="crispEdges"/>
</g>
<defs>
<filter id="filter0_d_1_11" x="19.3108" y="22.182" width="164.776" height="26.1011" filterUnits="userSpaceOnUse" color-interpolation-filters="sRGB">
<feFlood flood-opacity="0" result="BackgroundImageFix"/>
<feColorMatrix in="SourceAlpha" type="matrix" values="0 0 0 0 0 0 0 0 0 0 0 0 0 0 0 0 0 0 127 0" result="hardAlpha"/>
<feOffset dx="2" dy="2"/>
<feGaussianBlur stdDeviation="1.5"/>
<feComposite in2="hardAlpha" operator="out"/>
<feColorMatrix type="matrix" values="0 0 0 0 0 0 0 0 0 0 0 0 0 0 0 0 0 0 0.25 0"/>
<feBlend mode="normal" in2="BackgroundImageFix" result="effect1_dropShadow_1_11"/>
<feBlend mode="normal" in="SourceGraphic" in2="effect1_dropShadow_1_11" result="shape"/>
</filter>
<filter id="filter1_d_1_11" x="185.89" y="5" width="68.2198" height="58.75" filterUnits="userSpaceOnUse" color-interpolation-filters="sRGB">
<feFlood flood-opacity="0" result="BackgroundImageFix"/>
<feColorMatrix in="SourceAlpha" type="matrix" values="0 0 0 0 0 0 0 0 0 0 0 0 0 0 0 0 0 0 127 0" result="hardAlpha"/>
<feOffset dx="3" dy="2"/>
<feGaussianBlur stdDeviation="1"/>
<feComposite in2="hardAlpha" operator="out"/>
<feColorMatrix type="matrix" values="0 0 0 0 0 0 0 0 0 0 0 0 0 0 0 0 0 0 0.25 0"/>
<feBlend mode="normal" in2="BackgroundImageFix" result="effect1_dropShadow_1_11"/>
<feBlend mode="normal" in="SourceGraphic" in2="effect1_dropShadow_1_11" result="shape"/>
</filter>
<filter id="filter2_d_1_11" x="201.124" y="22.5904" width="37.7524" height="32.3645" filterUnits="userSpaceOnUse" color-interpolation-filters="sRGB">
<feFlood flood-opacity="0" result="BackgroundImageFix"/>
<feColorMatrix in="SourceAlpha" type="matrix" values="0 0 0 0 0 0 0 0 0 0 0 0 0 0 0 0 0 0 127 0" result="hardAlpha"/>
<feOffset dx="3" dy="2"/>
<feGaussianBlur stdDeviation="1"/>
<feComposite in2="hardAlpha" operator="out"/>
<feColorMatrix type="matrix" values="0 0 0 0 0 0 0 0 0 0 0 0 0 0 0 0 0 0 0.25 0"/>
<feBlend mode="normal" in2="BackgroundImageFix" result="effect1_dropShadow_1_11"/>
<feBlend mode="normal" in="SourceGraphic" in2="effect1_dropShadow_1_11" result="shape"/>
</filter>
</defs>
</svg>
