<svg width="30" height="40" viewBox="0 0 30 40" fill="none" xmlns="http://www.w3.org/2000/svg">
<path d="M15 0C6.66406 0 0 6.62241 0 14.9062C0 17.771 0.859375 19.9837 2.35156 22.2274L13.4219 38.9193C13.7578 39.4239 14.3359 39.75 15 39.75C15.6641 39.75 16.25 39.4162 16.5781 38.9193L27.6484 22.2274C29.1406 19.9837 30 17.771 30 14.9062C30 6.62241 23.3359 0 15 0ZM15 23.1823C10.3984 23.1823 6.66406 19.4713 6.66406 14.8907C6.66406 10.3102 10.3984 6.59912 15 6.59912C19.6016 6.59912 23.3359 10.3102 23.3359 14.8907C23.3359 19.4713 19.6016 23.1823 15 23.1823ZM15 9.9375C12.2344 9.9375 10 12.1579 10 14.9062C10 17.6546 12.2344 19.875 15 19.875C17.7656 19.875 20 17.6546 20 14.9062C20 12.1579 17.7656 9.9375 15 9.9375Z" fill="white"/>
</svg>
