<svg width="61" height="61" viewBox="0 0 61 61" fill="none" xmlns="http://www.w3.org/2000/svg">
<path d="M0 61L5.246 45.2631C2.58409 40.7859 1.05172 35.5609 1.05172 29.9741C1.05172 13.42 14.4717 0 31.0259 0C47.58 0 61 13.42 61 29.9741C61 46.5283 47.58 59.9483 31.0259 59.9483C25.9892 59.9483 21.2459 58.6999 17.08 56.506L0 61Z" fill="#62C370"/>
<path d="M50.1494 39.9497C48.7653 37.334 43.6613 34.3429 43.6613 34.3429C42.5065 33.6845 41.113 33.6109 40.4546 34.7846C40.4546 34.7846 38.796 36.7735 38.3743 37.0595C36.4475 38.3647 34.6627 38.3142 32.8611 36.5126L28.6742 32.3257L24.4873 28.1388C22.6857 26.3372 22.6352 24.5524 23.9404 22.6257C24.2265 22.2039 26.2153 20.5453 26.2153 20.5453C27.389 19.8859 27.3154 18.4934 26.657 17.3386C26.657 17.3386 23.6659 12.2346 21.0503 10.8506C19.9375 10.2616 18.5714 10.4677 17.6816 11.3575L15.8327 13.2064C9.96719 19.0719 12.8552 25.6935 18.7207 31.559L24.0813 36.9196L29.442 42.2803C35.3074 48.1457 41.9291 51.0338 47.7946 45.1683L49.6435 43.3194C50.5332 42.4275 50.7383 41.0613 50.1494 39.9497Z" fill="#003153"/>
</svg>
